<?xml version="1.0" standalone="no" ?>
<svg
version="1.1"
xmlns="http://www.w3.org/2000/svg"
xmlns:xlink="http://www.w3.org/1999/xlink"
width="430"
height="430">
<defs />
<rect width="430" height="430" fill="#fff" />

<path style="fill:none;stroke:#000;stroke-width:5px;stroke-linecap:round;stroke-linejoin:round" d="
M 5 5 h 420 v 420 h -200
m -20 0 h -200 v -420
M 185 405 h -160 v -380 h 180
M 225 5 v 40
M 45 195 v -150 h 340 v 340 h -120
M 245 25 h 160 v 380 h -160
M 245 365 h 120 V 235
M 325 215 h 60
M 205 385 h -160 V 235
M 185 365 h -120 V 65 h 300 v 130
M 245 109.17 A 110 110 1 0 1 245 320.83 V 405
M 205 105.46 A 110 110 1 0 0 205 324.54 V 425
M 25 215 h 40
M 105 215 h 40
M 265 215 h 40
M 205 243.28 A 30 30 1 1 1 225 243.28 V 425
M 225 125.56 V 65
M 127.25 195 A 90 90 1 1 1 245 299.85
M 225 304.44 A 90 90 1 0 1 127.25 235
M 205 284.28 A 70 70 1 1 1 282.08 195
M 225 263.99 A 50 50 1 1 1 245 255
M 225 284.28 A 70 70 0 0 0 282.08 235
M 345 195 V 85 H 245 V 88.51 A 130 130 1 0 1 343.45 195 z
M 205 85 H 85 V 195 H 86.55 A 130 130 0 0 1 205 85.39 z
M 85 235 v 110 H 185 V 341.49 A 130 130 0 0 1 86.55 235 z
M 345 235 v 110 h -80 V 335 A 130 130 0 0 0 343.45 235 z
" />

</svg>